# xmcd
#
# Track frame offsets:
#	150
#	20492
#	31596
#	44589
#	73381
#	89681
#	98936
#	125902
#	141062
#	146109
#	153538
#	161807
#	185785
#	189423
#	198237
#	208710
#
# Disc length: 3190 seconds
#
# Revision: 1
# Processed by: cddbd v1.5.1PL0 Copyright (c) Steve Scherf et al.
# Submitted via: audiograbber 1.83.01
#
DISCID=fa0c7410
DTITLE=DeWayne Keyes - Flying Solo
DYEAR=2001
DGENRE=Blues
TTITLE0=Waiting For The Bus
TTITLE1=My Lament
TTITLE2=Hot Lazy Day
TTITLE3=Four Bender
TTITLE4=Black Forest Blues
TTITLE5=Butch's Blues
TTITLE6=364
TTITLE7=Echos
TTITLE8=Harmonica Jig
TTITLE9=Shufflin' Along
TTITLE10=Low Down
TTITLE11=Jumpin'
TTITLE12=Yesterday Morning
TTITLE13=Final Jam
TTITLE14=Bonus Track 1
TTITLE15=Bonus Track 2
EXTD=
EXTT0=
EXTT1=
EXTT2=
EXTT3=
EXTT4=
EXTT5=
EXTT6=
EXTT7=
EXTT8=
EXTT9=
EXTT10=
EXTT11=
EXTT12=
EXTT13=
EXTT14=
EXTT15=
PLAYORDER=
